<svg xmlns="http://www.w3.org/2000/svg" viewBox="0 0 550 470">
  <g fill="#000000">
    <g>
      <path
        d="M171.818 175.733c-11.068-4.845-19.428-2.088-27.3 5.26-13.515 12.276-18.303 32.575-17.736 59.07-3.574 1.343-6.807 2.676-9.305 3.862a3.893 3.893 0 1 0 3.327 7.038c1.764-.834 3.947-1.758 6.377-2.713 1.06 12.774 4.713 24.678 10.37 33.72 5.769 9.227 12.933 14.523 19.65 14.523 6.293 0 10.823-1.895 12.47-11.116 1.292-7.238 1.292-20.254 1.287-43.893v-4.923c0-1.873-.935-3.537-2.556-4.566-1.486-.944-4.976-3.154-24.269 2.33a225.044 225.044 0 0 0-9.6 2.982c-.041-13.804 2.027-25.392 6.189-34.676.026-.069.057-.132.089-.2.068-.168.147-.336.23-.498 0-.01.006-.021.017-.027 1.931-3.873 6.697-7.993 13.54-7.111.016 0 .032.005.048.005.687.11 1.354.252 2 .425.047.01.094.026.136.037 4.65 1.328 6.15 3.621 8.476 6.403 3.522 4.53 12.712 12.097 18.93 3.39 7.354-10.291-1.295-24.478-12.37-29.322zm-26.504 66.355c9.967-2.892 15.472-3.6 17.855-3.564v2.96c.005 23.193.01 35.968-1.16 42.523-.84 4.697-1.448 4.697-4.807 4.697-2.887 0-8.036-2.844-13.053-10.859-5.317-8.502-8.639-19.99-9.358-32.356 0-.016 0-.026-.005-.042a215.111 215.111 0 0 1 10.528-3.359z"
        fill-rule="nonzero" />
      <path
        d="M260.128 205.016c-3.178-18.538-25.358-39.99-60.215-16.552.006-4.11.057-7.749.099-10.803a3.972 3.972 0 0 0-3.916-4.027h-.057a3.973 3.973 0 0 0-3.97 3.917c-.309 21.983-1.03 73.463 17.127 116.533a3.973 3.973 0 1 0 7.321-3.087 153.138 153.138 0 0 1-1.57-3.873c47.477-17.403 48.359-63.57 45.181-82.108zm-46.725 77.987c-11.355-31.586-13.298-66.701-13.475-89.912 10.367-5.546 33.19 3.37 35.66 19.957 2.472 16.596 4.943 47.14-22.185 69.955z"
        fill-rule="nonzero" />
      <path
        d="M433.412 174.846a3.89 3.89 0 0 0-5.487.393c-.19.22-18.112 20.856-31.88 32.362-13.766-11.506-31.69-32.142-31.88-32.362a3.89 3.89 0 0 0-5.879 5.093c.77.888 17.494 20.144 31.494 32.154-4.952 24.249-13.825 84.205 6.266 84.205 20.09 0 11.218-59.956 6.266-84.205 14-12.01 30.724-31.266 31.493-32.155a3.888 3.888 0 0 0-.393-5.485z" />
      <g fill-rule="evenodd">
        <path
          d="M333.236 218.54c5.572-7.463 7.437-15.14 5.593-23.03-1.31-5.61-4.378-10.04-9.204-13.292-4.046-2.726-8.916-4.317-14.608-4.773l-35.039-3.139a11.12 11.12 0 0 0-1.135-.059c-3.08 0-5.71 1.089-7.888 3.266-2.18 2.178-3.269 4.807-3.269 7.887 0 13.973 1.506 31.655 4.518 53.046 3.173 22.53 6.722 39.386 10.646 50.57.793 2.27 2.174 4.093 4.144 5.468a10.904 10.904 0 0 0 6.385 2.009c1.26 0 2.489-.211 3.688-.633 2.907-1.017 5.028-2.914 6.364-5.69.59-1.227.95-2.468 1.08-3.72 16.163-5.497 27.812-11.02 34.948-16.57 10.232-7.958 14.468-17.737 12.708-29.337-1.72-11.322-7.815-18.592-18.286-21.812-.215-.066-.43-.13-.645-.192zm-39.088 55.382c17.466-5.574 29.47-10.905 36.015-15.995 5.562-4.325 7.907-9.362 7.034-15.112-.767-5.051-3.355-8.255-7.765-9.61-4.624-1.422-9.57-1.045-14.838 1.133a8.317 8.317 0 0 1-.65.234 7.194 7.194 0 0 1-1.35.287 7.434 7.434 0 0 1-1.033.052 7.513 7.513 0 0 1-1.03-.09 8.655 8.655 0 0 1-.677-.139 7.397 7.397 0 0 1-.984-.32 6.905 6.905 0 0 1-.628-.288 7.6 7.6 0 0 1-2.612-2.212 7.22 7.22 0 0 1-.886-1.538 7.33 7.33 0 0 1-.449-1.415 6.93 6.93 0 0 1-.117-.734 7.157 7.157 0 0 1-.041-1.113 7.935 7.935 0 0 1 .123-1.107 7.583 7.583 0 0 1 3.47-5.06c.107-.064.214-.127.322-.186 3.337-1.837 6.566-4.304 9.688-7.404 5.248-5.21 7.363-9.993 6.344-14.352-.887-3.8-4.36-5.941-10.418-6.426l-30.789-2.76c.277 12.558 1.717 28.08 4.32 46.568 2.172 15.42 4.49 27.95 6.951 37.587z" />
        <path
          d="m328.387 249.012 6.347-6.346-6.347-6.346-6.346 6.346zm-21.453 7.133 6.346-6.347-6.346-6.346-6.346 6.346zm14.265 0 6.346-6.347-6.346-6.346-6.346 6.346zm-13.503.792 6.354-6.354 6.354 6.354-6.354 6.354zm-7.895 6.34 6.347-6.346-6.347-6.346h-.056l-6.346 6.346z" />
      </g>
    </g>
  </g>
</svg>